<svg width="753" height="200" viewBox="0 0 753 200" fill="none" xmlns="http://www.w3.org/2000/svg">
<g opacity="0.4" clip-path="url(#clip0_804_1385)">
<path d="M627.42 89.2171L659.201 89.2081C659.201 66.4087 644.409 49.2766 618.367 49.2766C579.45 49.2766 572.193 77.7433 572.193 98.0817C572.193 110.058 577.16 150.461 626.181 150.461C634.691 150.461 644.516 149.626 656.588 146.29V129.31C637.385 137.667 608.914 138.027 605.277 106.408C602.245 79.9796 607.163 63.1754 616.418 63.1754C624.447 63.1754 627.42 74.8647 627.42 89.2171Z" fill="white"/>
<path d="M718.806 84.8744C718.64 74.0203 716.534 63.1752 708.644 63.1752C701.185 63.1752 698.428 71.8064 697.282 84.8744H718.806ZM752.338 89.895V99.8913H696.883C698.832 138.925 728.075 137.726 748.625 129.31V146.289C736.554 149.626 728.201 150.452 718.932 150.452C671.29 150.452 664.199 114.971 664.199 96.9634C664.199 76.1175 673.315 49.2315 709.802 49.263C736.697 49.2764 752.338 66.2918 752.338 89.895Z" fill="white"/>
<path d="M413.972 133.114L419.388 133.132V97.3316C411.529 98.0366 400.28 101.517 400.266 117.091C400.266 131.686 407.196 132.835 413.972 133.114ZM452.61 84.5824V147.497L400.204 147.488C380.92 147.466 366.775 139.567 366.82 117.957C366.891 82.8805 407.568 84.1558 419.388 84.1244V81.6904C419.406 60.3101 398.192 62.3848 385.501 66.0762C382.793 66.9025 380.382 67.7916 378.415 68.6583L378.433 52.86C389.74 50.1746 397.356 49.2629 409.27 49.2629C437.203 49.2629 452.61 62.4297 452.61 84.5824Z" fill="white"/>
<path d="M367.327 49.2629H360.245C332.749 49.2719 314.835 63.8937 314.813 83.4193V147.497H348.044V84.4432C348.066 66.7543 359.881 64.4595 367.327 64.226V49.2629Z" fill="white"/>
<path d="M308.382 12.8928C279.394 12.8928 254.871 16.9928 254.871 52.4605V147.498H288.093L288.097 67.4146H310.807V52.5055H288.097V45.0554C288.115 27.3664 302.126 27.6224 315.464 27.6224L315.455 12.8928H308.382Z" fill="white"/>
<path d="M470.856 52.5054V147.498H504.078V67.4235H505.857C517.402 67.4729 525.589 68.4878 525.589 90.3846V147.498H558.811V92.2258C558.811 74.5009 558.73 52.5099 511.739 52.5099L470.856 52.5054Z" fill="white"/>
<path d="M236.903 181.896C236.903 191.893 228.802 199.998 218.801 199.998C208.805 199.998 200.695 191.893 200.695 181.896C200.695 171.9 208.805 163.785 218.801 163.785C228.802 163.785 236.903 171.9 236.903 181.896Z" fill="white"/>
<path d="M202.19 147.498H235.417V52.5054H202.19V147.498Z" fill="#DADADA"/>
<path d="M35.9617 133.424C49.6718 133.424 54.4275 120.414 54.4275 98.8811C54.4275 78.3316 49.6718 66.3234 35.4946 66.3234L33.4244 66.3144V133.433L35.9617 133.424ZM46.0029 147.498H0V12.8928H33.4244V52.5055H43.0929C88.2066 52.5055 88.1842 87.798 88.1842 99.0967C88.1842 113.992 83.4644 147.498 46.0029 147.498Z" fill="#DADADA"/>
<path d="M137.066 66.3278L134.524 66.3143V133.433L136.594 133.424C150.767 133.424 155.54 121.415 155.54 100.884C155.54 79.3419 150.767 66.3278 137.066 66.3278ZM147.102 52.5054C184.573 52.5054 189.284 86.0151 189.284 100.897C189.284 112.2 189.306 147.497 144.192 147.497H134.524V187.11H101.104V52.5054H147.102Z" fill="#DADADA"/>
<path d="M236.903 18.1155C236.903 28.1028 228.802 36.2085 218.801 36.2085C208.805 36.2085 200.695 28.1028 200.695 18.1155C200.695 8.11912 208.805 0.00439453 218.801 0.00439453C228.802 0.00439453 236.903 8.11912 236.903 18.1155Z" fill="#DADADA"/>
</g>
<defs>
<clipPath id="clip0_804_1385">
<rect width="752.336" height="200" fill="white"/>
</clipPath>
</defs>
<script xmlns=""/></svg>