<svg width="553" height="200" viewBox="0 0 553 200" fill="none" xmlns="http://www.w3.org/2000/svg">
<g opacity="0.4">
<path d="M528.537 81.1066C461.027 36.0473 372.806 8.69556 276.364 8.69556C179.921 8.69556 91.6996 36.0473 24.0316 81.1066C91.2253 58.8141 169.802 44.9011 276.364 44.9011C382.925 44.9011 461.344 58.8141 528.537 81.1066ZM237.628 104.664C232.727 104.664 230.198 108.616 229.407 113.518C228.617 118.893 225.771 137.707 225.138 142.609C224.822 145.454 224.506 148.458 221.818 149.723C219.13 150.988 215.652 149.091 212.806 146.561L167.273 107.826C164.903 105.774 161.87 104.651 158.735 104.664C152.253 104.664 146.087 108.616 146.087 118.419V179.13C145.771 183.083 148.933 186.561 152.885 186.877H153.36C157.47 187.035 160.949 183.873 161.265 179.605C161.265 179.605 166.008 150.672 166.482 147.51C167.115 143.715 167.747 140.869 171.383 139.763C174.704 138.814 177.707 140.711 182.451 144.664C187.194 148.616 225.454 183.399 225.454 183.399C227.984 185.771 231.304 187.035 234.783 186.877C238.577 186.877 245.375 185.296 245.375 173.755V113.201C245.375 107.668 241.897 104.664 237.628 104.664ZM512.727 169.328C479.209 176.601 440.79 168.854 440.79 145.138C440.79 127.273 457.391 120 470.514 118.893C484.269 117.786 495.02 120.632 500.553 126.482C504.031 130.118 503.083 135.02 496.284 135.336C489.96 135.652 478.261 136.126 468.616 136.443C463.083 136.601 460.079 139.605 460.079 143.557C460.079 146.719 462.45 150.356 468.775 150.356C477.944 150.356 501.027 150.514 512.569 150.514C520.158 150.514 523.952 146.245 523.952 137.549C523.952 123.636 511.462 102.767 474.782 102.767C441.581 102.767 417.549 119.367 417.549 146.403C417.549 184.822 473.992 196.522 515.415 182.292C519.367 180.869 522.846 178.182 521.739 173.755C520.632 169.644 517.47 168.221 512.727 169.328ZM123.953 169.328C90.4348 176.601 52.1739 168.854 52.1739 145.138C52.1739 127.273 68.7747 120 81.8972 118.893C95.6521 117.786 106.403 120.632 111.937 126.482C115.415 130.118 114.466 135.02 107.668 135.336C101.344 135.652 89.8023 136.126 80 136.443C74.4664 136.601 71.4624 139.605 71.4624 143.557C71.4624 146.719 73.834 150.356 80.1581 150.356C89.328 150.356 112.411 150.514 123.953 150.514C131.541 150.514 135.336 146.245 135.336 137.549C135.336 123.636 122.846 102.767 86.166 102.767C52.9644 102.767 28.9328 119.367 28.9328 146.403C28.9328 184.822 85.3755 196.522 126.798 182.292C130.751 180.869 134.229 178.182 133.122 173.755C131.858 169.644 128.696 168.221 123.953 169.328ZM383.557 132.332C384.348 153.201 386.245 170.593 386.877 176.759C387.668 184.664 391.62 186.877 395.731 186.877C399.842 186.877 403.794 184.822 404.427 176.917C405.059 170.277 406.956 149.565 407.905 129.012C408.063 128.379 407.589 127.747 406.956 127.589H406.324L384.506 131.067C383.873 131.225 383.557 131.699 383.557 132.332ZM395.731 102.609C389.091 102.134 383.399 107.194 382.925 113.834V115.257C382.925 116.205 383.083 118.577 383.241 121.739C383.241 122.53 383.873 123.004 384.664 123.004H384.822L407.589 119.367C408.221 119.209 408.696 118.735 408.696 118.103C408.696 116.996 408.696 115.889 408.854 115.415C409.17 108.616 403.952 102.925 397.154 102.767C396.522 102.609 396.047 102.609 395.731 102.609ZM362.213 136.126C354.624 136.126 331.225 136.284 316.205 136.284C308.933 136.284 307.194 140.237 307.194 143.399C307.194 146.245 309.091 149.881 315.889 150.198C326.166 150.672 339.447 151.304 345.454 151.62C353.676 152.095 353.676 156.205 350.988 159.842C345.454 167.115 332.016 171.858 317.945 171.858C299.605 171.858 279.526 161.423 279.526 144.98C279.526 129.486 296.759 112.411 347.984 119.684C352.569 120.316 356.838 119.526 358.103 115.415C359.367 110.988 356.364 108.142 350.514 106.561C339.977 103.88 329.132 102.604 318.261 102.767C283.794 102.767 256.126 119.209 256.126 145.771C256.126 174.229 283.636 187.984 317.945 187.984C356.205 187.984 375.02 167.115 375.02 148.933C374.862 139.605 370.118 136.126 362.213 136.126Z" fill="white"/>
</g>
<script xmlns=""/></svg>