<svg width="26" height="34" viewBox="0 0 26 34" fill="none" xmlns="http://www.w3.org/2000/svg"><script xmlns=""/>
<path d="M23.6607 8.55181C24.2641 9.59687 24.5817 10.7823 24.5817 11.9891C24.5817 13.1958 24.2641 14.3813 23.6607 15.4263C23.0573 16.4714 22.1895 17.3392 21.1444 17.9426C20.0994 18.546 18.9139 18.8636 17.7072 18.8636C16.5004 18.8636 15.315 18.546 14.2699 17.9426C13.2248 17.3392 12.357 16.4714 11.7537 15.4263C11.1503 14.3813 10.8326 13.1958 10.8326 11.9891C10.8326 10.7823 11.1503 9.59687 11.7537 8.55181" stroke="#DFC37C"/>
<path d="M15.7899 13H19.6601" stroke="#DFC37C"/>
<path d="M14.3548 6.82717L14.3548 6.82678C14.3447 5.00119 15.8192 3.4814 17.6434 3.43847L17.6436 3.43846C18.3513 3.42142 19.0464 3.62764 19.6303 4.02787C20.2142 4.4281 20.6572 5.00202 20.8966 5.66822C21.136 6.33442 21.1595 7.05907 20.9638 7.73939C20.7683 8.41924 20.3638 9.02033 19.8077 9.4575C19.6076 9.61285 19.4454 9.81155 19.3332 10.0387C19.2208 10.2663 19.1615 10.5166 19.16 10.7705H19.16V10.7735L19.16 10.9519H16.2898L16.2898 10.7731L16.2898 10.7719C16.2892 10.519 16.231 10.2696 16.1197 10.0426C16.0084 9.81572 15.847 9.61714 15.6477 9.46186C15.2472 9.14897 14.9227 8.74936 14.6988 8.29305C14.4748 7.8367 14.3572 7.33551 14.3548 6.82717Z" fill="#DFC37C" stroke="#DFC37C"/>
<path fill-rule="evenodd" clip-rule="evenodd" d="M0 4.7291H0.5H10.9473V5.7291H1V32.9981H21.509V21.2072H22.509V33.4981V33.9981H22.009H0.5H0V33.4981V5.2291V4.7291ZM4.18726 28.336V27.336H16.4781V28.336H4.18726ZM4.18726 23.5509H12.7909V22.5509H4.18726V23.5509ZM10.3327 18.6345H4.18726V17.6345H10.3327V18.6345ZM4.18726 13.7182H9.10361V12.7182H4.18726V13.7182Z" fill="white"/>
</svg>