<svg width="472" height="200" viewBox="0 0 472 200" fill="none" xmlns="http://www.w3.org/2000/svg">
<g opacity="0.4">
<path d="M21.5738 170.68C15.1126 168.722 12.2817 167.479 12.2817 163.783C12.2817 160.476 16.6861 159.302 20.4582 159.302C23.7579 159.302 27.3047 160.283 29.714 161.861C30.2845 162.231 30.9859 162.344 31.64 162.162C32.2941 161.988 32.8465 161.533 33.1518 160.927L34.2492 158.732C34.7871 157.649 34.4346 156.333 33.4207 155.668C29.9502 153.401 25.0261 151.994 20.5708 151.994C11.2096 151.994 4.91553 156.802 4.91553 163.957C4.91553 173.253 12.7686 175.604 19.07 177.498C25.6694 179.475 28.5548 180.746 28.5184 184.675C28.5184 188.618 23.8778 190.02 19.5351 190.02C15.3742 190.02 10.8462 187.807 8.09529 185.267C7.54656 184.762 6.83792 184.471 6.10385 184.555C5.36615 184.638 4.7084 185.064 4.32683 185.703L3.06219 187.84C2.49892 188.781 2.65518 189.984 3.43649 190.755C7.51748 194.774 13.6626 197.274 19.477 197.274C29.2888 197.274 35.8809 192.183 35.8809 184.635C35.9572 175.045 27.9806 172.624 21.5738 170.68Z" fill="white"/>
<path d="M64.8039 153.499C64.4151 152.652 63.5684 152.107 62.6344 152.107H60.0397C59.1022 152.107 58.2554 152.652 57.8702 153.506L39.5766 193.84C39.2423 194.581 39.3041 195.435 39.7402 196.119C40.1835 196.805 40.9358 197.212 41.7462 197.212H44.399C45.3366 197.212 46.1869 196.664 46.5721 195.81L51.1328 185.729H71.6649L76.2801 195.821C76.669 196.667 77.5157 197.212 78.446 197.212H81.1024C81.9165 197.212 82.6687 196.798 83.1084 196.115C83.5481 195.435 83.6063 194.578 83.2683 193.833L64.8039 153.499ZM54.3271 178.534L61.3189 163.035L68.3907 178.534H54.3271Z" fill="white"/>
<path d="M95.2387 152.111H92.8185C91.503 152.111 90.4346 153.179 90.4346 154.495V194.828C90.4346 196.148 91.503 197.212 92.8185 197.212H95.2387C96.5542 197.212 97.6227 196.148 97.6227 194.828V154.495C97.6227 153.179 96.5542 152.111 95.2387 152.111Z" fill="white"/>
<path d="M145.559 152.111H143.193C141.87 152.111 140.806 153.179 140.806 154.495V183.872L118.166 153.081C117.715 152.467 117.003 152.111 116.243 152.111H113.416C112.097 152.111 111.032 153.179 111.032 154.495V194.828C111.032 196.148 112.097 197.212 113.416 197.212H115.836C117.155 197.212 118.224 196.148 118.224 194.828V165.466L140.806 196.246C141.253 196.853 141.968 197.212 142.732 197.212H145.559C146.874 197.212 147.943 196.148 147.943 194.828V154.495C147.943 153.179 146.874 152.111 145.559 152.111Z" fill="white"/>
<path d="M187.161 152.111H157.497C156.181 152.111 155.116 153.179 155.116 154.495V156.864C155.116 158.176 156.181 159.244 157.497 159.244H168.737V194.828C168.737 196.148 169.805 197.212 171.12 197.212H173.537C174.86 197.212 175.928 196.148 175.928 194.828V159.244H187.161C188.48 159.244 189.545 158.176 189.545 156.864V154.495C189.545 153.179 188.48 152.111 187.161 152.111Z" fill="white"/>
<path d="M204.902 174.097H192.031C190.715 174.097 189.647 175.161 189.647 176.48V178.443C189.647 179.762 190.715 180.827 192.031 180.827H204.902C206.218 180.827 207.282 179.762 207.282 178.443V176.48C207.282 175.161 206.218 174.097 204.902 174.097Z" fill="white"/>
<path d="M255.019 172.65H252.824C252.813 172.65 252.798 172.653 252.784 172.653H245.625C244.306 172.653 243.237 173.722 243.237 175.037V177.461C243.237 178.777 244.306 179.845 245.625 179.845H250.444V187.219C247.634 189.145 244.258 190.191 240.824 190.191C231.925 190.191 224.686 183.214 224.686 174.634C224.686 166.083 231.925 159.128 240.824 159.128C244.956 159.128 249.023 160.65 251.984 163.307C252.471 163.743 253.118 163.965 253.769 163.91C254.423 163.859 255.022 163.539 255.433 163.031L256.876 161.243C257.675 160.243 257.555 158.79 256.589 157.947C252.257 154.149 246.653 152.049 240.824 152.049C227.96 152.049 217.49 162.177 217.49 174.634C217.49 187.117 227.905 197.267 240.708 197.267C246.497 197.267 252.275 195.144 256.578 191.441C257.101 190.991 257.406 190.329 257.406 189.632V175.034C257.406 173.722 256.334 172.65 255.019 172.65Z" fill="white"/>
<path d="M288.833 152.049C276.002 152.049 265.561 162.177 265.561 174.63C265.561 187.117 276.002 197.267 288.833 197.267C301.665 197.267 312.109 187.117 312.109 174.63C312.109 162.177 301.665 152.049 288.833 152.049ZM288.833 190.133C279.995 190.133 272.807 183.178 272.807 174.63C272.807 166.112 279.995 159.186 288.833 159.186C297.667 159.186 304.856 166.112 304.856 174.63C304.856 183.178 297.667 190.133 288.833 190.133Z" fill="white"/>
<path d="M350.302 173.384C352.73 171.295 354.078 168.217 354.078 164.474C354.078 156.846 348.344 152.107 339.113 152.107H322.608C321.296 152.107 320.227 153.176 320.227 154.491V194.828C320.227 196.144 321.296 197.212 322.608 197.212H339.23C349.794 197.212 356.095 192.267 356.095 183.985C356.095 179.297 353.976 175.568 350.302 173.384ZM339.055 170.401H327.415V159.244H339.055C342.624 159.244 346.886 160.2 346.886 164.764C346.886 168.504 344.252 170.401 339.055 170.401ZM327.415 177.534H339.055C342.733 177.534 348.903 178.334 348.903 183.69C348.903 188.97 343.55 190.079 339.055 190.079H327.415V177.534Z" fill="white"/>
<path d="M385.367 153.499C384.978 152.652 384.131 152.107 383.197 152.107H380.603C379.662 152.107 378.815 152.652 378.426 153.506L360.136 193.84C359.802 194.581 359.863 195.435 360.307 196.119C360.746 196.805 361.499 197.212 362.313 197.212H364.966C365.903 197.212 366.754 196.664 367.139 195.81L371.699 185.729H392.224L396.84 195.821C397.228 196.667 398.079 197.212 399.009 197.212H401.662C402.472 197.212 403.232 196.798 403.668 196.115C404.108 195.435 404.169 194.578 403.831 193.833L385.367 153.499ZM374.89 178.534L381.882 163.035L388.954 178.534H374.89Z" fill="white"/>
<path d="M415.798 152.111H413.374C412.059 152.111 410.987 153.179 410.987 154.495V194.828C410.987 196.148 412.059 197.212 413.374 197.212H415.798C417.114 197.212 418.189 196.148 418.189 194.828V154.495C418.189 153.179 417.114 152.111 415.798 152.111Z" fill="white"/>
<path d="M466.118 152.111H463.749C462.433 152.111 461.369 153.179 461.369 154.495V183.872L438.725 153.081C438.278 152.467 437.562 152.111 436.803 152.111H433.975C432.656 152.111 431.588 153.179 431.588 154.495V194.828C431.588 196.148 432.656 197.212 433.975 197.212H436.399C437.715 197.212 438.78 196.148 438.78 194.828V165.466L461.369 196.246C461.816 196.853 462.528 197.212 463.287 197.212H466.118C467.434 197.212 468.498 196.148 468.498 194.828V154.495C468.498 153.179 467.434 152.111 466.118 152.111Z" fill="white"/>
<path d="M264.562 88.821V128.475H257.261V83.3664L264.562 88.821ZM406.095 128.344H377.376L377.172 128.145L351.912 103.161C350.884 102.143 349.299 101.831 347.958 102.39C346.599 102.957 345.72 104.273 345.72 105.745V128.475H338.216V72.2245C338.216 71.2288 337.798 70.2658 337.075 69.5826L316.088 49.7627C315.412 49.1231 314.522 48.7706 313.592 48.7706H303.1C301.094 48.7706 299.463 50.4023 299.463 52.4046V128.475H292.017V6.35083C292.017 4.86816 291.13 3.54906 289.76 2.98943C288.415 2.43706 286.802 2.77136 285.791 3.79977L251.036 39.0678C250.36 39.751 249.989 40.6595 249.989 41.6189V68.863L235.758 58.2372C234.465 57.2742 232.568 57.3069 231.31 58.3135L198.953 84.253C198.088 84.9471 197.594 85.9828 197.594 87.0912V128.475H190.261V105.665C190.261 97.6553 184.744 89.1408 174.529 89.1408C164.31 89.1408 158.797 97.6952 158.797 105.745V128.475L151.38 128.472V112.998C151.38 106.726 147.063 100.065 139.061 100.065C131.059 100.065 126.742 106.733 126.742 113.013V128.479L119.354 128.483L119.35 127.796C119.339 124.678 119.329 120.684 119.329 119.081C119.329 113.754 114.299 109.084 108.565 109.084C102.83 109.084 97.8007 113.732 97.8007 119.034V128.475L65.3999 128.472C63.3939 128.472 61.7658 130.103 61.7622 132.106C61.7622 133.08 62.1402 133.992 62.827 134.678C63.5138 135.365 64.4259 135.743 65.3962 135.743L101.435 135.747C102.405 135.747 103.321 135.369 104.004 134.682C104.691 133.995 105.072 133.083 105.072 132.113V119.692C105.072 118.347 106.537 116.352 108.565 116.352C110.563 116.352 112.061 118.176 112.061 119.808C112.061 120.742 112.097 132.135 112.097 132.135C112.108 134.133 113.736 135.758 115.731 135.758L130.38 135.747C132.382 135.747 134.014 134.115 134.014 132.113V113.013C134.014 111.047 135.067 107.333 139.061 107.333C143.055 107.333 144.112 111.036 144.112 112.998V132.102C144.112 134.108 145.74 135.74 147.743 135.74L162.428 135.747C163.387 135.747 164.325 135.358 165.001 134.682C165.677 134.006 166.065 133.069 166.065 132.113V105.745C166.065 102.518 167.835 96.4088 174.529 96.4088C180.736 96.4088 182.989 101.943 182.989 105.665V132.113C182.989 134.115 184.621 135.747 186.623 135.747H201.228C203.234 135.747 204.862 134.115 204.862 132.113V88.8355L205.124 88.6248L233.662 65.7451L249.989 77.9371V132.113C249.989 134.115 251.621 135.747 253.623 135.747H268.199C270.202 135.747 271.833 134.115 271.833 132.113V86.9967C271.833 85.8593 271.285 84.7691 270.372 84.0859L257.261 74.2922V43.1088L257.461 42.9053L284.745 15.2178V132.113C284.745 134.115 286.377 135.747 288.379 135.747H303.1C305.103 135.747 306.734 134.115 306.734 132.113V56.0386H312.145L312.345 56.2276L330.944 73.7907V132.113C330.944 134.115 332.576 135.747 334.578 135.747H349.354C351.36 135.747 352.992 134.115 352.992 132.113V114.452L373.324 134.562C374.011 135.238 374.919 135.612 375.879 135.612H406.095C408.101 135.612 409.733 133.981 409.733 131.978C409.733 129.972 408.101 128.344 406.095 128.344Z" fill="white"/>
</g>
<script xmlns=""/></svg>