<svg width="130" height="49" viewBox="0 0 130 49" fill="none" xmlns="http://www.w3.org/2000/svg"><script xmlns=""/>
<path fill-rule="evenodd" clip-rule="evenodd" d="M26.7787 2.88316C29.5504 5.86385 30.1047 10.874 27.7381 12.9668C27.7381 12.9668 27.5249 8.48519 24.1989 5.06055C20.8729 1.63592 16.0758 1.29768 16.0758 1.29768C19.0606 -1.00655 24.007 -0.0975339 26.7787 2.88316ZM2.4481 26.7922C-0.323584 23.8115 -0.87792 18.8014 1.48867 16.7085C1.48867 16.7085 1.70188 21.1902 5.02789 24.6148C8.35391 28.0394 13.1511 28.3777 13.1511 28.3777C10.1662 30.6819 5.21978 29.7729 2.4481 26.7922ZM22.7704 14.8482C22.7704 19.3315 19.1049 22.9659 14.5833 22.9659C10.0617 22.9659 6.39618 19.3315 6.39618 14.8482C6.39618 10.365 10.0617 6.73059 14.5833 6.73059C19.1049 6.73059 22.7704 10.365 22.7704 14.8482ZM26.2244 14.8482C26.2244 21.2229 21.0125 26.3905 14.5833 26.3905C8.15412 26.3905 2.94224 21.2229 2.94224 14.8482C2.94224 8.47361 8.15412 3.30596 14.5833 3.30596C21.0125 3.30596 26.2244 8.47361 26.2244 14.8482Z" fill="white"/>
<path d="M43.8788 22.5931C43.0999 22.5931 42.289 22.5037 41.4463 22.325C40.6163 22.1334 39.9586 21.9164 39.4734 21.6737L39.7416 19.4711C40.4311 19.8031 41.1653 20.084 41.9443 20.3138C42.7232 20.5309 43.4893 20.6394 44.2427 20.6394C45.0472 20.6394 45.6729 20.4926 46.1198 20.1989C46.5667 19.9052 46.7902 19.4583 46.7902 18.8581C46.7902 18.4112 46.6689 18.0473 46.4262 17.7664C46.1964 17.4727 45.858 17.2237 45.4111 17.0194C44.9642 16.8151 44.3129 16.5725 43.4574 16.2915C42.6146 16.0234 41.9123 15.7425 41.3505 15.4488C40.8014 15.1423 40.3545 14.7401 40.0097 14.2421C39.6777 13.7441 39.5117 13.1184 39.5117 12.365C39.5117 11.2541 39.9267 10.3603 40.7567 9.68347C41.5995 8.99393 42.7934 8.64917 44.3385 8.64917C45.1174 8.64917 45.8772 8.73855 46.6178 8.91732C47.3584 9.08332 48.016 9.29401 48.5906 9.54939L48.3608 11.7138C47.6074 11.3307 46.8987 11.0498 46.2347 10.871C45.5835 10.6795 44.9131 10.5837 44.2236 10.5837C43.4446 10.5837 42.8317 10.7242 42.3848 11.0051C41.9379 11.286 41.7144 11.7074 41.7144 12.2692C41.7144 12.6651 41.8229 12.9971 42.04 13.2652C42.2571 13.5206 42.5572 13.7377 42.9403 13.9165C43.3361 14.0952 43.8979 14.2995 44.6258 14.5294C46.1453 14.9891 47.269 15.5382 47.9968 16.1766C48.7247 16.8151 49.0886 17.6834 49.0886 18.7815C49.0886 19.8924 48.6736 20.8054 47.8436 21.5205C47.0264 22.2356 45.7048 22.5931 43.8788 22.5931Z" fill="white"/>
<path d="M51.177 8.91736H53.2647V22.325H51.177V8.91736Z" fill="white"/>
<path d="M62.279 22.5931C60.9637 22.5931 59.789 22.3058 58.7547 21.7312C57.7204 21.1566 56.9095 20.3458 56.3222 19.2987C55.7475 18.2388 55.4602 17.013 55.4602 15.6212C55.4602 14.2293 55.7539 13.0099 56.3413 11.9628C56.9415 10.9029 57.7587 10.0857 58.793 9.51109C59.8401 8.93647 61.0276 8.64917 62.3556 8.64917C63.0196 8.64917 63.6517 8.7194 64.2518 8.85986C64.8647 9.00032 65.4074 9.19186 65.8799 9.43447L65.6692 11.3882C64.5072 10.8646 63.3963 10.6029 62.3364 10.6029C61.3532 10.6029 60.5168 10.8199 59.8273 11.2541C59.1505 11.6883 58.6334 12.282 58.2758 13.0354C57.9311 13.7888 57.7587 14.6507 57.7587 15.6212C57.7587 16.5916 57.9311 17.4535 58.2758 18.2069C58.6206 18.9603 59.1314 19.5541 59.8081 19.9882C60.4849 20.4224 61.3085 20.6394 62.279 20.6394C62.9047 20.6394 63.4857 20.5756 64.022 20.4479C64.5583 20.3074 65.1073 20.1095 65.6692 19.8541L65.8799 21.827C64.7434 22.3377 63.5431 22.5931 62.279 22.5931Z" fill="white"/>
<path d="M74.945 18.8965H69.9076L68.7009 22.325H66.594L71.3824 8.91736H73.4702L78.2778 22.325H76.1517L74.945 18.8965ZM74.2938 17.0385L72.4359 11.7713L70.5779 17.0385H74.2938Z" fill="white"/>
<path d="M79.8889 8.91736H84.4667C85.9224 8.91736 87.0588 9.25574 87.876 9.93251C88.6933 10.6093 89.1019 11.6308 89.1019 12.9971C89.1019 14.7465 88.3293 15.9915 86.7843 16.7321L89.7914 22.325H87.3589L84.6965 17.2109H84.6007H82.0341V22.325H79.8889V8.91736ZM84.1794 15.3913C85.0987 15.3913 85.7819 15.187 86.2288 14.7784C86.6885 14.357 86.9184 13.7824 86.9184 13.0546C86.9184 12.3012 86.6949 11.7266 86.248 11.3307C85.801 10.9221 85.1243 10.7178 84.2177 10.7178H82.0341V15.3913H84.1794Z" fill="white"/>
<path d="M98.5693 18.8965H93.5319L92.3252 22.325H90.2183L95.0067 8.91736H97.0945L101.902 22.325H99.776L98.5693 18.8965ZM97.9181 17.0385L96.0602 11.7713L94.2023 17.0385H97.9181Z" fill="white"/>
<path d="M11.8846 46V38.586H12.9186V46H11.8846ZM9.28857 39.312V38.366H15.5036V39.312H9.28857ZM20.4756 46V42.953C20.4756 42.557 20.3509 42.2307 20.1016 41.974C19.8522 41.7173 19.5296 41.589 19.1336 41.589C18.8696 41.589 18.6349 41.6477 18.4296 41.765C18.2242 41.8823 18.0629 42.0437 17.9456 42.249C17.8282 42.4543 17.7696 42.689 17.7696 42.953L17.3626 42.722C17.3626 42.326 17.4506 41.974 17.6266 41.666C17.8026 41.358 18.0482 41.116 18.3636 40.94C18.6789 40.7567 19.0346 40.665 19.4306 40.665C19.8266 40.665 20.1749 40.753 20.4756 40.929C20.7836 41.105 21.0256 41.3507 21.2016 41.666C21.3776 41.9813 21.4656 42.3443 21.4656 42.755V46H20.4756ZM16.7796 46V38.146H17.7696V46H16.7796ZM25.4459 46.11C24.9253 46.11 24.4559 45.9927 24.0379 45.758C23.6199 45.516 23.2899 45.1897 23.0479 44.779C22.8059 44.3683 22.6849 43.9027 22.6849 43.382C22.6849 42.8687 22.8023 42.4067 23.0369 41.996C23.2789 41.5853 23.6016 41.2627 24.0049 41.028C24.4156 40.786 24.8739 40.665 25.3799 40.665C25.8639 40.665 26.2893 40.775 26.6559 40.995C27.0299 41.215 27.3196 41.5193 27.5249 41.908C27.7376 42.2967 27.8439 42.7367 27.8439 43.228C27.8439 43.3013 27.8403 43.382 27.8329 43.47C27.8256 43.5507 27.8109 43.646 27.7889 43.756H23.3779V42.931H27.2609L26.8979 43.25C26.8979 42.898 26.8356 42.601 26.7109 42.359C26.5863 42.1097 26.4103 41.919 26.1829 41.787C25.9556 41.6477 25.6806 41.578 25.3579 41.578C25.0206 41.578 24.7236 41.6513 24.4669 41.798C24.2103 41.9447 24.0123 42.15 23.8729 42.414C23.7336 42.678 23.6639 42.9897 23.6639 43.349C23.6639 43.7157 23.7373 44.0383 23.8839 44.317C24.0306 44.5883 24.2396 44.801 24.5109 44.955C24.7823 45.1017 25.0939 45.175 25.4459 45.175C25.7393 45.175 26.0069 45.1237 26.2489 45.021C26.4983 44.9183 26.7109 44.7643 26.8869 44.559L27.5249 45.208C27.2756 45.5013 26.9676 45.725 26.6009 45.879C26.2416 46.033 25.8566 46.11 25.4459 46.11ZM31.5304 46.11C31.0171 46.11 30.555 45.989 30.1444 45.747C29.7337 45.505 29.4074 45.1787 29.1654 44.768C28.9234 44.35 28.8024 43.8843 28.8024 43.371C28.8024 42.865 28.9234 42.4103 29.1654 42.007C29.4074 41.5963 29.7337 41.27 30.1444 41.028C30.555 40.786 31.0171 40.665 31.5304 40.665C32.0364 40.665 32.4947 40.786 32.9054 41.028C33.3234 41.2627 33.6534 41.5853 33.8954 41.996C34.1374 42.4067 34.2584 42.865 34.2584 43.371C34.2584 43.8843 34.1374 44.35 33.8954 44.768C33.6534 45.1787 33.3234 45.505 32.9054 45.747C32.4947 45.989 32.0364 46.11 31.5304 46.11ZM31.5304 45.153C31.8604 45.153 32.1537 45.076 32.4104 44.922C32.6671 44.768 32.8687 44.559 33.0154 44.295C33.1621 44.0237 33.2354 43.7157 33.2354 43.371C33.2354 43.0337 33.1584 42.733 33.0044 42.469C32.8577 42.205 32.6561 41.9997 32.3994 41.853C32.15 41.699 31.8604 41.622 31.5304 41.622C31.2004 41.622 30.907 41.699 30.6504 41.853C30.3937 41.9997 30.192 42.205 30.0454 42.469C29.8987 42.733 29.8254 43.0337 29.8254 43.371C29.8254 43.7157 29.8987 44.0237 30.0454 44.295C30.192 44.559 30.3937 44.768 30.6504 44.922C30.907 45.076 31.2004 45.153 31.5304 45.153ZM37.8049 46.11C37.3209 46.11 36.8882 45.9927 36.5069 45.758C36.1255 45.516 35.8212 45.1897 35.5939 44.779C35.3739 44.3683 35.2639 43.9063 35.2639 43.393C35.2639 42.8797 35.3739 42.4177 35.5939 42.007C35.8212 41.5963 36.1255 41.27 36.5069 41.028C36.8882 40.786 37.3209 40.665 37.8049 40.665C38.1935 40.665 38.5455 40.7493 38.8609 40.918C39.1762 41.0793 39.4292 41.3067 39.6199 41.6C39.8179 41.886 39.9279 42.2197 39.9499 42.601V44.174C39.9279 44.548 39.8215 44.8817 39.6309 45.175C39.4402 45.4683 39.1872 45.6993 38.8719 45.868C38.5565 46.0293 38.2009 46.11 37.8049 46.11ZM37.9699 45.175C38.2999 45.175 38.5859 45.098 38.8279 44.944C39.0772 44.79 39.2715 44.581 39.4109 44.317C39.5502 44.0457 39.6199 43.7377 39.6199 43.393C39.6199 43.0337 39.5465 42.722 39.3999 42.458C39.2605 42.194 39.0662 41.985 38.8169 41.831C38.5749 41.677 38.2889 41.6 37.9589 41.6C37.6289 41.6 37.3392 41.677 37.0899 41.831C36.8405 41.985 36.6425 42.1977 36.4959 42.469C36.3565 42.733 36.2869 43.0373 36.2869 43.382C36.2869 43.734 36.3565 44.0457 36.4959 44.317C36.6425 44.581 36.8405 44.79 37.0899 44.944C37.3465 45.098 37.6399 45.175 37.9699 45.175ZM40.5549 46H39.5539V44.592L39.7409 43.316L39.5539 42.051V38.146H40.5549V46ZM44.6032 46.11C44.0899 46.11 43.6279 45.989 43.2172 45.747C42.8065 45.505 42.4802 45.1787 42.2382 44.768C41.9962 44.35 41.8752 43.8843 41.8752 43.371C41.8752 42.865 41.9962 42.4103 42.2382 42.007C42.4802 41.5963 42.8065 41.27 43.2172 41.028C43.6279 40.786 44.0899 40.665 44.6032 40.665C45.1092 40.665 45.5675 40.786 45.9782 41.028C46.3962 41.2627 46.7262 41.5853 46.9682 41.996C47.2102 42.4067 47.3312 42.865 47.3312 43.371C47.3312 43.8843 47.2102 44.35 46.9682 44.768C46.7262 45.1787 46.3962 45.505 45.9782 45.747C45.5675 45.989 45.1092 46.11 44.6032 46.11ZM44.6032 45.153C44.9332 45.153 45.2265 45.076 45.4832 44.922C45.7399 44.768 45.9415 44.559 46.0882 44.295C46.2349 44.0237 46.3082 43.7157 46.3082 43.371C46.3082 43.0337 46.2312 42.733 46.0772 42.469C45.9305 42.205 45.7289 41.9997 45.4722 41.853C45.2229 41.699 44.9332 41.622 44.6032 41.622C44.2732 41.622 43.9799 41.699 43.7232 41.853C43.4665 41.9997 43.2649 42.205 43.1182 42.469C42.9715 42.733 42.8982 43.0337 42.8982 43.371C42.8982 43.7157 42.9715 44.0237 43.1182 44.295C43.2649 44.559 43.4665 44.768 43.7232 44.922C43.9799 45.076 44.2732 45.153 44.6032 45.153ZM53.3417 48.299C52.8064 48.299 52.3297 48.2 51.9117 48.002C51.5011 47.804 51.1711 47.5253 50.9217 47.166L51.5597 46.517C51.7724 46.7883 52.0254 46.9937 52.3187 47.133C52.6121 47.2797 52.9604 47.353 53.3637 47.353C53.8991 47.353 54.3207 47.21 54.6287 46.924C54.9441 46.6453 55.1017 46.2677 55.1017 45.791V44.493L55.2777 43.316L55.1017 42.15V40.775H56.0917V45.791C56.0917 46.2897 55.9744 46.726 55.7397 47.1C55.5124 47.474 55.1897 47.7673 54.7717 47.98C54.3611 48.1927 53.8844 48.299 53.3417 48.299ZM53.3417 45.912C52.8651 45.912 52.4361 45.7983 52.0547 45.571C51.6807 45.3437 51.3837 45.032 51.1637 44.636C50.9437 44.2327 50.8337 43.7817 50.8337 43.283C50.8337 42.7843 50.9437 42.3407 51.1637 41.952C51.3837 41.556 51.6807 41.2443 52.0547 41.017C52.4361 40.7823 52.8651 40.665 53.3417 40.665C53.7524 40.665 54.1154 40.7457 54.4307 40.907C54.7461 41.0683 54.9954 41.2957 55.1787 41.589C55.3694 41.875 55.4721 42.2123 55.4867 42.601V43.987C55.4647 44.3683 55.3584 44.7057 55.1677 44.999C54.9844 45.285 54.7351 45.5087 54.4197 45.67C54.1044 45.8313 53.7451 45.912 53.3417 45.912ZM53.5397 44.977C53.8624 44.977 54.1447 44.9073 54.3867 44.768C54.6361 44.6287 54.8267 44.4343 54.9587 44.185C55.0907 43.9283 55.1567 43.6313 55.1567 43.294C55.1567 42.9567 55.0871 42.6633 54.9477 42.414C54.8157 42.1573 54.6287 41.9593 54.3867 41.82C54.1447 41.6733 53.8587 41.6 53.5287 41.6C53.1987 41.6 52.9091 41.6733 52.6597 41.82C52.4104 41.9593 52.2124 42.1573 52.0657 42.414C51.9264 42.6633 51.8567 42.953 51.8567 43.283C51.8567 43.613 51.9264 43.9063 52.0657 44.163C52.2124 44.4197 52.4104 44.6213 52.6597 44.768C52.9164 44.9073 53.2097 44.977 53.5397 44.977ZM57.7649 46V40.775H58.7549V46H57.7649ZM58.7549 43.019L58.3809 42.854C58.3809 42.1867 58.5349 41.655 58.8429 41.259C59.1509 40.863 59.5945 40.665 60.1739 40.665C60.4379 40.665 60.6762 40.7127 60.8889 40.808C61.1015 40.896 61.2995 41.0463 61.4829 41.259L60.8339 41.93C60.7239 41.8127 60.6029 41.7283 60.4709 41.677C60.3389 41.6257 60.1849 41.6 60.0089 41.6C59.6422 41.6 59.3415 41.7173 59.1069 41.952C58.8722 42.1867 58.7549 42.5423 58.7549 43.019ZM64.615 46.11C64.1017 46.11 63.6397 45.989 63.229 45.747C62.8184 45.505 62.492 45.1787 62.25 44.768C62.008 44.35 61.887 43.8843 61.887 43.371C61.887 42.865 62.008 42.4103 62.25 42.007C62.492 41.5963 62.8184 41.27 63.229 41.028C63.6397 40.786 64.1017 40.665 64.615 40.665C65.121 40.665 65.5794 40.786 65.99 41.028C66.408 41.2627 66.738 41.5853 66.98 41.996C67.222 42.4067 67.343 42.865 67.343 43.371C67.343 43.8843 67.222 44.35 66.98 44.768C66.738 45.1787 66.408 45.505 65.99 45.747C65.5794 45.989 65.121 46.11 64.615 46.11ZM64.615 45.153C64.945 45.153 65.2384 45.076 65.495 44.922C65.7517 44.768 65.9534 44.559 66.1 44.295C66.2467 44.0237 66.32 43.7157 66.32 43.371C66.32 43.0337 66.243 42.733 66.089 42.469C65.9424 42.205 65.7407 41.9997 65.484 41.853C65.2347 41.699 64.945 41.622 64.615 41.622C64.285 41.622 63.9917 41.699 63.735 41.853C63.4784 41.9997 63.2767 42.205 63.13 42.469C62.9834 42.733 62.91 43.0337 62.91 43.371C62.91 43.7157 62.9834 44.0237 63.13 44.295C63.2767 44.559 63.4784 44.768 63.735 44.922C63.9917 45.076 64.285 45.153 64.615 45.153ZM70.7795 46.11C70.3542 46.11 69.9692 46.0147 69.6245 45.824C69.2872 45.626 69.0232 45.3547 68.8325 45.01C68.6418 44.6653 68.5465 44.2657 68.5465 43.811V40.775H69.5365V43.767C69.5365 44.053 69.5842 44.3023 69.6795 44.515C69.7822 44.7203 69.9288 44.878 70.1195 44.988C70.3102 45.098 70.5338 45.153 70.7905 45.153C71.1792 45.153 71.4835 45.032 71.7035 44.79C71.9235 44.5407 72.0335 44.1997 72.0335 43.767V40.775H73.0235V43.811C73.0235 44.2657 72.9282 44.6653 72.7375 45.01C72.5468 45.3547 72.2828 45.626 71.9455 45.824C71.6155 46.0147 71.2268 46.11 70.7795 46.11ZM77.3204 46.11C76.9244 46.11 76.565 46.0293 76.2424 45.868C75.927 45.6993 75.674 45.4683 75.4834 45.175C75.2927 44.8817 75.1864 44.548 75.1644 44.174V42.601C75.1864 42.2197 75.2927 41.886 75.4834 41.6C75.6814 41.3067 75.938 41.0793 76.2534 40.918C76.576 40.7493 76.9317 40.665 77.3204 40.665C77.797 40.665 78.226 40.786 78.6074 41.028C78.996 41.27 79.3004 41.5963 79.5204 42.007C79.7404 42.4177 79.8504 42.8797 79.8504 43.393C79.8504 43.9063 79.7404 44.3683 79.5204 44.779C79.3004 45.1897 78.996 45.516 78.6074 45.758C78.226 45.9927 77.797 46.11 77.3204 46.11ZM77.1554 45.175C77.4854 45.175 77.775 45.098 78.0244 44.944C78.2737 44.79 78.4717 44.581 78.6184 44.317C78.765 44.0457 78.8384 43.734 78.8384 43.382C78.8384 43.0373 78.765 42.7293 78.6184 42.458C78.4717 42.1867 78.2737 41.9777 78.0244 41.831C77.775 41.677 77.489 41.6 77.1664 41.6C76.8364 41.6 76.5467 41.677 76.2974 41.831C76.048 41.9777 75.8537 42.1867 75.7144 42.458C75.575 42.7293 75.5054 43.041 75.5054 43.393C75.5054 43.7377 75.5714 44.0457 75.7034 44.317C75.8427 44.581 76.037 44.79 76.2864 44.944C76.543 45.098 76.8327 45.175 77.1554 45.175ZM74.5704 48.189V40.775H75.5604V42.15L75.3734 43.415L75.5604 44.691V48.189H74.5704ZM86.0878 46.11C85.5745 46.11 85.1088 45.989 84.6908 45.747C84.2801 45.505 83.9538 45.1787 83.7118 44.768C83.4771 44.35 83.3598 43.888 83.3598 43.382C83.3598 42.8687 83.4771 42.4067 83.7118 41.996C83.9538 41.5853 84.2801 41.2627 84.6908 41.028C85.1088 40.786 85.5745 40.665 86.0878 40.665C86.4911 40.665 86.8651 40.742 87.2098 40.896C87.5545 41.0427 87.8515 41.259 88.1008 41.545L87.4408 42.205C87.2795 42.0143 87.0815 41.8713 86.8468 41.776C86.6195 41.6733 86.3665 41.622 86.0878 41.622C85.7578 41.622 85.4645 41.699 85.2078 41.853C84.9511 41.9997 84.7495 42.205 84.6028 42.469C84.4561 42.733 84.3828 43.0373 84.3828 43.382C84.3828 43.7267 84.4561 44.031 84.6028 44.295C84.7495 44.559 84.9511 44.768 85.2078 44.922C85.4645 45.076 85.7578 45.153 86.0878 45.153C86.3665 45.153 86.6195 45.1053 86.8468 45.01C87.0815 44.9073 87.2831 44.7607 87.4518 44.57L88.1008 45.23C87.8588 45.5087 87.5618 45.725 87.2098 45.879C86.8651 46.033 86.4911 46.11 86.0878 46.11ZM91.5822 46.11C91.0689 46.11 90.6069 45.989 90.1962 45.747C89.7855 45.505 89.4592 45.1787 89.2172 44.768C88.9752 44.35 88.8542 43.8843 88.8542 43.371C88.8542 42.865 88.9752 42.4103 89.2172 42.007C89.4592 41.5963 89.7855 41.27 90.1962 41.028C90.6069 40.786 91.0689 40.665 91.5822 40.665C92.0882 40.665 92.5465 40.786 92.9572 41.028C93.3752 41.2627 93.7052 41.5853 93.9472 41.996C94.1892 42.4067 94.3102 42.865 94.3102 43.371C94.3102 43.8843 94.1892 44.35 93.9472 44.768C93.7052 45.1787 93.3752 45.505 92.9572 45.747C92.5465 45.989 92.0882 46.11 91.5822 46.11ZM91.5822 45.153C91.9122 45.153 92.2055 45.076 92.4622 44.922C92.7189 44.768 92.9205 44.559 93.0672 44.295C93.2139 44.0237 93.2872 43.7157 93.2872 43.371C93.2872 43.0337 93.2102 42.733 93.0562 42.469C92.9095 42.205 92.7079 41.9997 92.4512 41.853C92.2019 41.699 91.9122 41.622 91.5822 41.622C91.2522 41.622 90.9589 41.699 90.7022 41.853C90.4455 41.9997 90.2439 42.205 90.0972 42.469C89.9505 42.733 89.8772 43.0337 89.8772 43.371C89.8772 43.7157 89.9505 44.0237 90.0972 44.295C90.2439 44.559 90.4455 44.768 90.7022 44.922C90.9589 45.076 91.2522 45.153 91.5822 45.153ZM95.6457 46V40.775H96.6357V46H95.6457ZM99.1767 46V42.843C99.1767 42.4543 99.0557 42.15 98.8137 41.93C98.579 41.7027 98.282 41.589 97.9227 41.589C97.6807 41.589 97.4644 41.6403 97.2737 41.743C97.083 41.8457 96.929 41.9887 96.8117 42.172C96.6944 42.3553 96.6357 42.5753 96.6357 42.832L96.2287 42.634C96.2287 42.238 96.313 41.8933 96.4817 41.6C96.6577 41.3067 96.896 41.0793 97.1967 40.918C97.4974 40.7493 97.8347 40.665 98.2087 40.665C98.5754 40.665 98.9054 40.7457 99.1987 40.907C99.4994 41.0683 99.734 41.2957 99.9027 41.589C100.079 41.8823 100.167 42.2307 100.167 42.634V46H99.1767ZM102.708 46V42.843C102.708 42.4543 102.587 42.15 102.345 41.93C102.11 41.7027 101.817 41.589 101.465 41.589C101.223 41.589 101.003 41.6403 100.805 41.743C100.614 41.8457 100.46 41.9887 100.343 42.172C100.225 42.3553 100.167 42.5753 100.167 42.832L99.6057 42.634C99.6277 42.2307 99.734 41.886 99.9247 41.6C100.123 41.3067 100.376 41.0793 100.684 40.918C100.992 40.7493 101.329 40.665 101.696 40.665C102.077 40.665 102.418 40.7457 102.719 40.907C103.019 41.0683 103.258 41.2957 103.434 41.589C103.617 41.8823 103.709 42.2343 103.709 42.645V46H102.708ZM108.026 46.11C107.63 46.11 107.271 46.0293 106.948 45.868C106.633 45.6993 106.38 45.4683 106.189 45.175C105.998 44.8817 105.892 44.548 105.87 44.174V42.601C105.892 42.2197 105.998 41.886 106.189 41.6C106.387 41.3067 106.644 41.0793 106.959 40.918C107.282 40.7493 107.637 40.665 108.026 40.665C108.503 40.665 108.932 40.786 109.313 41.028C109.702 41.27 110.006 41.5963 110.226 42.007C110.446 42.4177 110.556 42.8797 110.556 43.393C110.556 43.9063 110.446 44.3683 110.226 44.779C110.006 45.1897 109.702 45.516 109.313 45.758C108.932 45.9927 108.503 46.11 108.026 46.11ZM107.861 45.175C108.191 45.175 108.481 45.098 108.73 44.944C108.979 44.79 109.177 44.581 109.324 44.317C109.471 44.0457 109.544 43.734 109.544 43.382C109.544 43.0373 109.471 42.7293 109.324 42.458C109.177 42.1867 108.979 41.9777 108.73 41.831C108.481 41.677 108.195 41.6 107.872 41.6C107.542 41.6 107.252 41.677 107.003 41.831C106.754 41.9777 106.559 42.1867 106.42 42.458C106.281 42.7293 106.211 43.041 106.211 43.393C106.211 43.7377 106.277 44.0457 106.409 44.317C106.548 44.581 106.743 44.79 106.992 44.944C107.249 45.098 107.538 45.175 107.861 45.175ZM105.276 48.189V40.775H106.266V42.15L106.079 43.415L106.266 44.691V48.189H105.276ZM114.12 46.11C113.644 46.11 113.211 45.9927 112.822 45.758C112.434 45.516 112.126 45.1897 111.898 44.779C111.678 44.3683 111.568 43.9063 111.568 43.393C111.568 42.8797 111.678 42.4177 111.898 42.007C112.126 41.5963 112.43 41.27 112.811 41.028C113.2 40.786 113.636 40.665 114.12 40.665C114.516 40.665 114.868 40.7493 115.176 40.918C115.492 41.0793 115.745 41.3067 115.935 41.6C116.126 41.886 116.232 42.2197 116.254 42.601V44.174C116.232 44.548 116.126 44.8817 115.935 45.175C115.752 45.4683 115.503 45.6993 115.187 45.868C114.879 46.0293 114.524 46.11 114.12 46.11ZM114.285 45.175C114.777 45.175 115.173 45.01 115.473 44.68C115.774 44.3427 115.924 43.9137 115.924 43.393C115.924 43.0337 115.855 42.722 115.715 42.458C115.583 42.1867 115.393 41.9777 115.143 41.831C114.894 41.677 114.604 41.6 114.274 41.6C113.944 41.6 113.651 41.677 113.394 41.831C113.145 41.985 112.947 42.1977 112.8 42.469C112.661 42.733 112.591 43.0373 112.591 43.382C112.591 43.734 112.661 44.0457 112.8 44.317C112.947 44.581 113.149 44.79 113.405 44.944C113.662 45.098 113.955 45.175 114.285 45.175ZM115.858 46V44.592L116.045 43.316L115.858 42.051V40.775H116.859V46H115.858ZM122.217 46V42.953C122.217 42.557 122.092 42.2307 121.843 41.974C121.593 41.7173 121.271 41.589 120.875 41.589C120.611 41.589 120.376 41.6477 120.171 41.765C119.965 41.8823 119.804 42.0437 119.687 42.249C119.569 42.4543 119.511 42.689 119.511 42.953L119.104 42.722C119.104 42.326 119.192 41.974 119.368 41.666C119.544 41.358 119.789 41.116 120.105 40.94C120.42 40.7567 120.776 40.665 121.172 40.665C121.568 40.665 121.916 40.764 122.217 40.962C122.525 41.16 122.767 41.4203 122.943 41.743C123.119 42.0583 123.207 42.3957 123.207 42.755V46H122.217ZM118.521 46V40.775H119.511V46H118.521ZM126.483 46.044L124.217 40.775H125.317L127 44.9H126.648L128.419 40.775H129.519L127.077 46.044H126.483ZM124.987 48.189L126.527 45.032L127.077 46.044L126.087 48.189H124.987Z" fill="white" fill-opacity="0.65"/>
<path d="M11.8846 46V38.586H12.9186V46H11.8846ZM9.28857 39.312V38.366H15.5036V39.312H9.28857ZM20.4756 46V42.953C20.4756 42.557 20.3509 42.2307 20.1016 41.974C19.8522 41.7173 19.5296 41.589 19.1336 41.589C18.8696 41.589 18.6349 41.6477 18.4296 41.765C18.2242 41.8823 18.0629 42.0437 17.9456 42.249C17.8282 42.4543 17.7696 42.689 17.7696 42.953L17.3626 42.722C17.3626 42.326 17.4506 41.974 17.6266 41.666C17.8026 41.358 18.0482 41.116 18.3636 40.94C18.6789 40.7567 19.0346 40.665 19.4306 40.665C19.8266 40.665 20.1749 40.753 20.4756 40.929C20.7836 41.105 21.0256 41.3507 21.2016 41.666C21.3776 41.9813 21.4656 42.3443 21.4656 42.755V46H20.4756ZM16.7796 46V38.146H17.7696V46H16.7796ZM25.4459 46.11C24.9253 46.11 24.4559 45.9927 24.0379 45.758C23.6199 45.516 23.2899 45.1897 23.0479 44.779C22.8059 44.3683 22.6849 43.9027 22.6849 43.382C22.6849 42.8687 22.8023 42.4067 23.0369 41.996C23.2789 41.5853 23.6016 41.2627 24.0049 41.028C24.4156 40.786 24.8739 40.665 25.3799 40.665C25.8639 40.665 26.2893 40.775 26.6559 40.995C27.0299 41.215 27.3196 41.5193 27.5249 41.908C27.7376 42.2967 27.8439 42.7367 27.8439 43.228C27.8439 43.3013 27.8403 43.382 27.8329 43.47C27.8256 43.5507 27.8109 43.646 27.7889 43.756H23.3779V42.931H27.2609L26.8979 43.25C26.8979 42.898 26.8356 42.601 26.7109 42.359C26.5863 42.1097 26.4103 41.919 26.1829 41.787C25.9556 41.6477 25.6806 41.578 25.3579 41.578C25.0206 41.578 24.7236 41.6513 24.4669 41.798C24.2103 41.9447 24.0123 42.15 23.8729 42.414C23.7336 42.678 23.6639 42.9897 23.6639 43.349C23.6639 43.7157 23.7373 44.0383 23.8839 44.317C24.0306 44.5883 24.2396 44.801 24.5109 44.955C24.7823 45.1017 25.0939 45.175 25.4459 45.175C25.7393 45.175 26.0069 45.1237 26.2489 45.021C26.4983 44.9183 26.7109 44.7643 26.8869 44.559L27.5249 45.208C27.2756 45.5013 26.9676 45.725 26.6009 45.879C26.2416 46.033 25.8566 46.11 25.4459 46.11ZM31.5304 46.11C31.0171 46.11 30.555 45.989 30.1444 45.747C29.7337 45.505 29.4074 45.1787 29.1654 44.768C28.9234 44.35 28.8024 43.8843 28.8024 43.371C28.8024 42.865 28.9234 42.4103 29.1654 42.007C29.4074 41.5963 29.7337 41.27 30.1444 41.028C30.555 40.786 31.0171 40.665 31.5304 40.665C32.0364 40.665 32.4947 40.786 32.9054 41.028C33.3234 41.2627 33.6534 41.5853 33.8954 41.996C34.1374 42.4067 34.2584 42.865 34.2584 43.371C34.2584 43.8843 34.1374 44.35 33.8954 44.768C33.6534 45.1787 33.3234 45.505 32.9054 45.747C32.4947 45.989 32.0364 46.11 31.5304 46.11ZM31.5304 45.153C31.8604 45.153 32.1537 45.076 32.4104 44.922C32.6671 44.768 32.8687 44.559 33.0154 44.295C33.1621 44.0237 33.2354 43.7157 33.2354 43.371C33.2354 43.0337 33.1584 42.733 33.0044 42.469C32.8577 42.205 32.6561 41.9997 32.3994 41.853C32.15 41.699 31.8604 41.622 31.5304 41.622C31.2004 41.622 30.907 41.699 30.6504 41.853C30.3937 41.9997 30.192 42.205 30.0454 42.469C29.8987 42.733 29.8254 43.0337 29.8254 43.371C29.8254 43.7157 29.8987 44.0237 30.0454 44.295C30.192 44.559 30.3937 44.768 30.6504 44.922C30.907 45.076 31.2004 45.153 31.5304 45.153ZM37.8049 46.11C37.3209 46.11 36.8882 45.9927 36.5069 45.758C36.1255 45.516 35.8212 45.1897 35.5939 44.779C35.3739 44.3683 35.2639 43.9063 35.2639 43.393C35.2639 42.8797 35.3739 42.4177 35.5939 42.007C35.8212 41.5963 36.1255 41.27 36.5069 41.028C36.8882 40.786 37.3209 40.665 37.8049 40.665C38.1935 40.665 38.5455 40.7493 38.8609 40.918C39.1762 41.0793 39.4292 41.3067 39.6199 41.6C39.8179 41.886 39.9279 42.2197 39.9499 42.601V44.174C39.9279 44.548 39.8215 44.8817 39.6309 45.175C39.4402 45.4683 39.1872 45.6993 38.8719 45.868C38.5565 46.0293 38.2009 46.11 37.8049 46.11ZM37.9699 45.175C38.2999 45.175 38.5859 45.098 38.8279 44.944C39.0772 44.79 39.2715 44.581 39.4109 44.317C39.5502 44.0457 39.6199 43.7377 39.6199 43.393C39.6199 43.0337 39.5465 42.722 39.3999 42.458C39.2605 42.194 39.0662 41.985 38.8169 41.831C38.5749 41.677 38.2889 41.6 37.9589 41.6C37.6289 41.6 37.3392 41.677 37.0899 41.831C36.8405 41.985 36.6425 42.1977 36.4959 42.469C36.3565 42.733 36.2869 43.0373 36.2869 43.382C36.2869 43.734 36.3565 44.0457 36.4959 44.317C36.6425 44.581 36.8405 44.79 37.0899 44.944C37.3465 45.098 37.6399 45.175 37.9699 45.175ZM40.5549 46H39.5539V44.592L39.7409 43.316L39.5539 42.051V38.146H40.5549V46ZM44.6032 46.11C44.0899 46.11 43.6279 45.989 43.2172 45.747C42.8065 45.505 42.4802 45.1787 42.2382 44.768C41.9962 44.35 41.8752 43.8843 41.8752 43.371C41.8752 42.865 41.9962 42.4103 42.2382 42.007C42.4802 41.5963 42.8065 41.27 43.2172 41.028C43.6279 40.786 44.0899 40.665 44.6032 40.665C45.1092 40.665 45.5675 40.786 45.9782 41.028C46.3962 41.2627 46.7262 41.5853 46.9682 41.996C47.2102 42.4067 47.3312 42.865 47.3312 43.371C47.3312 43.8843 47.2102 44.35 46.9682 44.768C46.7262 45.1787 46.3962 45.505 45.9782 45.747C45.5675 45.989 45.1092 46.11 44.6032 46.11ZM44.6032 45.153C44.9332 45.153 45.2265 45.076 45.4832 44.922C45.7399 44.768 45.9415 44.559 46.0882 44.295C46.2349 44.0237 46.3082 43.7157 46.3082 43.371C46.3082 43.0337 46.2312 42.733 46.0772 42.469C45.9305 42.205 45.7289 41.9997 45.4722 41.853C45.2229 41.699 44.9332 41.622 44.6032 41.622C44.2732 41.622 43.9799 41.699 43.7232 41.853C43.4665 41.9997 43.2649 42.205 43.1182 42.469C42.9715 42.733 42.8982 43.0337 42.8982 43.371C42.8982 43.7157 42.9715 44.0237 43.1182 44.295C43.2649 44.559 43.4665 44.768 43.7232 44.922C43.9799 45.076 44.2732 45.153 44.6032 45.153ZM53.3417 48.299C52.8064 48.299 52.3297 48.2 51.9117 48.002C51.5011 47.804 51.1711 47.5253 50.9217 47.166L51.5597 46.517C51.7724 46.7883 52.0254 46.9937 52.3187 47.133C52.6121 47.2797 52.9604 47.353 53.3637 47.353C53.8991 47.353 54.3207 47.21 54.6287 46.924C54.9441 46.6453 55.1017 46.2677 55.1017 45.791V44.493L55.2777 43.316L55.1017 42.15V40.775H56.0917V45.791C56.0917 46.2897 55.9744 46.726 55.7397 47.1C55.5124 47.474 55.1897 47.7673 54.7717 47.98C54.3611 48.1927 53.8844 48.299 53.3417 48.299ZM53.3417 45.912C52.8651 45.912 52.4361 45.7983 52.0547 45.571C51.6807 45.3437 51.3837 45.032 51.1637 44.636C50.9437 44.2327 50.8337 43.7817 50.8337 43.283C50.8337 42.7843 50.9437 42.3407 51.1637 41.952C51.3837 41.556 51.6807 41.2443 52.0547 41.017C52.4361 40.7823 52.8651 40.665 53.3417 40.665C53.7524 40.665 54.1154 40.7457 54.4307 40.907C54.7461 41.0683 54.9954 41.2957 55.1787 41.589C55.3694 41.875 55.4721 42.2123 55.4867 42.601V43.987C55.4647 44.3683 55.3584 44.7057 55.1677 44.999C54.9844 45.285 54.7351 45.5087 54.4197 45.67C54.1044 45.8313 53.7451 45.912 53.3417 45.912ZM53.5397 44.977C53.8624 44.977 54.1447 44.9073 54.3867 44.768C54.6361 44.6287 54.8267 44.4343 54.9587 44.185C55.0907 43.9283 55.1567 43.6313 55.1567 43.294C55.1567 42.9567 55.0871 42.6633 54.9477 42.414C54.8157 42.1573 54.6287 41.9593 54.3867 41.82C54.1447 41.6733 53.8587 41.6 53.5287 41.6C53.1987 41.6 52.9091 41.6733 52.6597 41.82C52.4104 41.9593 52.2124 42.1573 52.0657 42.414C51.9264 42.6633 51.8567 42.953 51.8567 43.283C51.8567 43.613 51.9264 43.9063 52.0657 44.163C52.2124 44.4197 52.4104 44.6213 52.6597 44.768C52.9164 44.9073 53.2097 44.977 53.5397 44.977ZM57.7649 46V40.775H58.7549V46H57.7649ZM58.7549 43.019L58.3809 42.854C58.3809 42.1867 58.5349 41.655 58.8429 41.259C59.1509 40.863 59.5945 40.665 60.1739 40.665C60.4379 40.665 60.6762 40.7127 60.8889 40.808C61.1015 40.896 61.2995 41.0463 61.4829 41.259L60.8339 41.93C60.7239 41.8127 60.6029 41.7283 60.4709 41.677C60.3389 41.6257 60.1849 41.6 60.0089 41.6C59.6422 41.6 59.3415 41.7173 59.1069 41.952C58.8722 42.1867 58.7549 42.5423 58.7549 43.019ZM64.615 46.11C64.1017 46.11 63.6397 45.989 63.229 45.747C62.8184 45.505 62.492 45.1787 62.25 44.768C62.008 44.35 61.887 43.8843 61.887 43.371C61.887 42.865 62.008 42.4103 62.25 42.007C62.492 41.5963 62.8184 41.27 63.229 41.028C63.6397 40.786 64.1017 40.665 64.615 40.665C65.121 40.665 65.5794 40.786 65.99 41.028C66.408 41.2627 66.738 41.5853 66.98 41.996C67.222 42.4067 67.343 42.865 67.343 43.371C67.343 43.8843 67.222 44.35 66.98 44.768C66.738 45.1787 66.408 45.505 65.99 45.747C65.5794 45.989 65.121 46.11 64.615 46.11ZM64.615 45.153C64.945 45.153 65.2384 45.076 65.495 44.922C65.7517 44.768 65.9534 44.559 66.1 44.295C66.2467 44.0237 66.32 43.7157 66.32 43.371C66.32 43.0337 66.243 42.733 66.089 42.469C65.9424 42.205 65.7407 41.9997 65.484 41.853C65.2347 41.699 64.945 41.622 64.615 41.622C64.285 41.622 63.9917 41.699 63.735 41.853C63.4784 41.9997 63.2767 42.205 63.13 42.469C62.9834 42.733 62.91 43.0337 62.91 43.371C62.91 43.7157 62.9834 44.0237 63.13 44.295C63.2767 44.559 63.4784 44.768 63.735 44.922C63.9917 45.076 64.285 45.153 64.615 45.153ZM70.7795 46.11C70.3542 46.11 69.9692 46.0147 69.6245 45.824C69.2872 45.626 69.0232 45.3547 68.8325 45.01C68.6418 44.6653 68.5465 44.2657 68.5465 43.811V40.775H69.5365V43.767C69.5365 44.053 69.5842 44.3023 69.6795 44.515C69.7822 44.7203 69.9288 44.878 70.1195 44.988C70.3102 45.098 70.5338 45.153 70.7905 45.153C71.1792 45.153 71.4835 45.032 71.7035 44.79C71.9235 44.5407 72.0335 44.1997 72.0335 43.767V40.775H73.0235V43.811C73.0235 44.2657 72.9282 44.6653 72.7375 45.01C72.5468 45.3547 72.2828 45.626 71.9455 45.824C71.6155 46.0147 71.2268 46.11 70.7795 46.11ZM77.3204 46.11C76.9244 46.11 76.565 46.0293 76.2424 45.868C75.927 45.6993 75.674 45.4683 75.4834 45.175C75.2927 44.8817 75.1864 44.548 75.1644 44.174V42.601C75.1864 42.2197 75.2927 41.886 75.4834 41.6C75.6814 41.3067 75.938 41.0793 76.2534 40.918C76.576 40.7493 76.9317 40.665 77.3204 40.665C77.797 40.665 78.226 40.786 78.6074 41.028C78.996 41.27 79.3004 41.5963 79.5204 42.007C79.7404 42.4177 79.8504 42.8797 79.8504 43.393C79.8504 43.9063 79.7404 44.3683 79.5204 44.779C79.3004 45.1897 78.996 45.516 78.6074 45.758C78.226 45.9927 77.797 46.11 77.3204 46.11ZM77.1554 45.175C77.4854 45.175 77.775 45.098 78.0244 44.944C78.2737 44.79 78.4717 44.581 78.6184 44.317C78.765 44.0457 78.8384 43.734 78.8384 43.382C78.8384 43.0373 78.765 42.7293 78.6184 42.458C78.4717 42.1867 78.2737 41.9777 78.0244 41.831C77.775 41.677 77.489 41.6 77.1664 41.6C76.8364 41.6 76.5467 41.677 76.2974 41.831C76.048 41.9777 75.8537 42.1867 75.7144 42.458C75.575 42.7293 75.5054 43.041 75.5054 43.393C75.5054 43.7377 75.5714 44.0457 75.7034 44.317C75.8427 44.581 76.037 44.79 76.2864 44.944C76.543 45.098 76.8327 45.175 77.1554 45.175ZM74.5704 48.189V40.775H75.5604V42.15L75.3734 43.415L75.5604 44.691V48.189H74.5704ZM86.0878 46.11C85.5745 46.11 85.1088 45.989 84.6908 45.747C84.2801 45.505 83.9538 45.1787 83.7118 44.768C83.4771 44.35 83.3598 43.888 83.3598 43.382C83.3598 42.8687 83.4771 42.4067 83.7118 41.996C83.9538 41.5853 84.2801 41.2627 84.6908 41.028C85.1088 40.786 85.5745 40.665 86.0878 40.665C86.4911 40.665 86.8651 40.742 87.2098 40.896C87.5545 41.0427 87.8515 41.259 88.1008 41.545L87.4408 42.205C87.2795 42.0143 87.0815 41.8713 86.8468 41.776C86.6195 41.6733 86.3665 41.622 86.0878 41.622C85.7578 41.622 85.4645 41.699 85.2078 41.853C84.9511 41.9997 84.7495 42.205 84.6028 42.469C84.4561 42.733 84.3828 43.0373 84.3828 43.382C84.3828 43.7267 84.4561 44.031 84.6028 44.295C84.7495 44.559 84.9511 44.768 85.2078 44.922C85.4645 45.076 85.7578 45.153 86.0878 45.153C86.3665 45.153 86.6195 45.1053 86.8468 45.01C87.0815 44.9073 87.2831 44.7607 87.4518 44.57L88.1008 45.23C87.8588 45.5087 87.5618 45.725 87.2098 45.879C86.8651 46.033 86.4911 46.11 86.0878 46.11ZM91.5822 46.11C91.0689 46.11 90.6069 45.989 90.1962 45.747C89.7855 45.505 89.4592 45.1787 89.2172 44.768C88.9752 44.35 88.8542 43.8843 88.8542 43.371C88.8542 42.865 88.9752 42.4103 89.2172 42.007C89.4592 41.5963 89.7855 41.27 90.1962 41.028C90.6069 40.786 91.0689 40.665 91.5822 40.665C92.0882 40.665 92.5465 40.786 92.9572 41.028C93.3752 41.2627 93.7052 41.5853 93.9472 41.996C94.1892 42.4067 94.3102 42.865 94.3102 43.371C94.3102 43.8843 94.1892 44.35 93.9472 44.768C93.7052 45.1787 93.3752 45.505 92.9572 45.747C92.5465 45.989 92.0882 46.11 91.5822 46.11ZM91.5822 45.153C91.9122 45.153 92.2055 45.076 92.4622 44.922C92.7189 44.768 92.9205 44.559 93.0672 44.295C93.2139 44.0237 93.2872 43.7157 93.2872 43.371C93.2872 43.0337 93.2102 42.733 93.0562 42.469C92.9095 42.205 92.7079 41.9997 92.4512 41.853C92.2019 41.699 91.9122 41.622 91.5822 41.622C91.2522 41.622 90.9589 41.699 90.7022 41.853C90.4455 41.9997 90.2439 42.205 90.0972 42.469C89.9505 42.733 89.8772 43.0337 89.8772 43.371C89.8772 43.7157 89.9505 44.0237 90.0972 44.295C90.2439 44.559 90.4455 44.768 90.7022 44.922C90.9589 45.076 91.2522 45.153 91.5822 45.153ZM95.6457 46V40.775H96.6357V46H95.6457ZM99.1767 46V42.843C99.1767 42.4543 99.0557 42.15 98.8137 41.93C98.579 41.7027 98.282 41.589 97.9227 41.589C97.6807 41.589 97.4644 41.6403 97.2737 41.743C97.083 41.8457 96.929 41.9887 96.8117 42.172C96.6944 42.3553 96.6357 42.5753 96.6357 42.832L96.2287 42.634C96.2287 42.238 96.313 41.8933 96.4817 41.6C96.6577 41.3067 96.896 41.0793 97.1967 40.918C97.4974 40.7493 97.8347 40.665 98.2087 40.665C98.5754 40.665 98.9054 40.7457 99.1987 40.907C99.4994 41.0683 99.734 41.2957 99.9027 41.589C100.079 41.8823 100.167 42.2307 100.167 42.634V46H99.1767ZM102.708 46V42.843C102.708 42.4543 102.587 42.15 102.345 41.93C102.11 41.7027 101.817 41.589 101.465 41.589C101.223 41.589 101.003 41.6403 100.805 41.743C100.614 41.8457 100.46 41.9887 100.343 42.172C100.225 42.3553 100.167 42.5753 100.167 42.832L99.6057 42.634C99.6277 42.2307 99.734 41.886 99.9247 41.6C100.123 41.3067 100.376 41.0793 100.684 40.918C100.992 40.7493 101.329 40.665 101.696 40.665C102.077 40.665 102.418 40.7457 102.719 40.907C103.019 41.0683 103.258 41.2957 103.434 41.589C103.617 41.8823 103.709 42.2343 103.709 42.645V46H102.708ZM108.026 46.11C107.63 46.11 107.271 46.0293 106.948 45.868C106.633 45.6993 106.38 45.4683 106.189 45.175C105.998 44.8817 105.892 44.548 105.87 44.174V42.601C105.892 42.2197 105.998 41.886 106.189 41.6C106.387 41.3067 106.644 41.0793 106.959 40.918C107.282 40.7493 107.637 40.665 108.026 40.665C108.503 40.665 108.932 40.786 109.313 41.028C109.702 41.27 110.006 41.5963 110.226 42.007C110.446 42.4177 110.556 42.8797 110.556 43.393C110.556 43.9063 110.446 44.3683 110.226 44.779C110.006 45.1897 109.702 45.516 109.313 45.758C108.932 45.9927 108.503 46.11 108.026 46.11ZM107.861 45.175C108.191 45.175 108.481 45.098 108.73 44.944C108.979 44.79 109.177 44.581 109.324 44.317C109.471 44.0457 109.544 43.734 109.544 43.382C109.544 43.0373 109.471 42.7293 109.324 42.458C109.177 42.1867 108.979 41.9777 108.73 41.831C108.481 41.677 108.195 41.6 107.872 41.6C107.542 41.6 107.252 41.677 107.003 41.831C106.754 41.9777 106.559 42.1867 106.42 42.458C106.281 42.7293 106.211 43.041 106.211 43.393C106.211 43.7377 106.277 44.0457 106.409 44.317C106.548 44.581 106.743 44.79 106.992 44.944C107.249 45.098 107.538 45.175 107.861 45.175ZM105.276 48.189V40.775H106.266V42.15L106.079 43.415L106.266 44.691V48.189H105.276ZM114.12 46.11C113.644 46.11 113.211 45.9927 112.822 45.758C112.434 45.516 112.126 45.1897 111.898 44.779C111.678 44.3683 111.568 43.9063 111.568 43.393C111.568 42.8797 111.678 42.4177 111.898 42.007C112.126 41.5963 112.43 41.27 112.811 41.028C113.2 40.786 113.636 40.665 114.12 40.665C114.516 40.665 114.868 40.7493 115.176 40.918C115.492 41.0793 115.745 41.3067 115.935 41.6C116.126 41.886 116.232 42.2197 116.254 42.601V44.174C116.232 44.548 116.126 44.8817 115.935 45.175C115.752 45.4683 115.503 45.6993 115.187 45.868C114.879 46.0293 114.524 46.11 114.12 46.11ZM114.285 45.175C114.777 45.175 115.173 45.01 115.473 44.68C115.774 44.3427 115.924 43.9137 115.924 43.393C115.924 43.0337 115.855 42.722 115.715 42.458C115.583 42.1867 115.393 41.9777 115.143 41.831C114.894 41.677 114.604 41.6 114.274 41.6C113.944 41.6 113.651 41.677 113.394 41.831C113.145 41.985 112.947 42.1977 112.8 42.469C112.661 42.733 112.591 43.0373 112.591 43.382C112.591 43.734 112.661 44.0457 112.8 44.317C112.947 44.581 113.149 44.79 113.405 44.944C113.662 45.098 113.955 45.175 114.285 45.175ZM115.858 46V44.592L116.045 43.316L115.858 42.051V40.775H116.859V46H115.858ZM122.217 46V42.953C122.217 42.557 122.092 42.2307 121.843 41.974C121.593 41.7173 121.271 41.589 120.875 41.589C120.611 41.589 120.376 41.6477 120.171 41.765C119.965 41.8823 119.804 42.0437 119.687 42.249C119.569 42.4543 119.511 42.689 119.511 42.953L119.104 42.722C119.104 42.326 119.192 41.974 119.368 41.666C119.544 41.358 119.789 41.116 120.105 40.94C120.42 40.7567 120.776 40.665 121.172 40.665C121.568 40.665 121.916 40.764 122.217 40.962C122.525 41.16 122.767 41.4203 122.943 41.743C123.119 42.0583 123.207 42.3957 123.207 42.755V46H122.217ZM118.521 46V40.775H119.511V46H118.521ZM126.483 46.044L124.217 40.775H125.317L127 44.9H126.648L128.419 40.775H129.519L127.077 46.044H126.483ZM124.987 48.189L126.527 45.032L127.077 46.044L126.087 48.189H124.987Z" fill="white" fill-opacity="0.65"/>
<path d="M1.23793 46H0.268466L3.07244 38.3636H4.02699L6.83097 46H5.86151L3.57955 39.5717H3.51989L1.23793 46ZM1.59588 43.017H5.50355V43.8374H1.59588V43.017Z" fill="white"/>
</svg>