<svg width="806" height="200" viewBox="0 0 806 200" fill="none" xmlns="http://www.w3.org/2000/svg">
<g opacity="0.4" clip-path="url(#clip0_804_1440)">
<path d="M229.806 84.8666C238.293 84.8666 245.082 91.6554 245.082 100.142C245.082 108.628 238.293 115.417 229.806 115.417C228.673 115.417 226.129 115.134 226.129 114.852C225.28 114.568 221.888 114.003 219.341 114.852C215.949 116.266 213.682 119.661 213.682 123.339C213.682 127.016 216.51 130.693 219.341 131.826C222.169 132.959 226.694 133.523 229.806 133.523C248.477 133.523 263.468 118.248 263.468 99.8609C263.468 81.1902 248.193 66.1986 229.806 66.1986C220.471 66.1986 211.419 70.159 205.195 76.9476C205.195 76.9476 145.508 138.333 131.362 150.496C118.915 161.245 103.64 168.034 85.8215 168.034C67.7179 168.034 50.7445 160.962 37.7324 148.233C25.0039 135.504 17.931 118.247 17.931 100.144C17.931 62.8047 48.4816 32.2541 85.8209 32.2541C93.1748 32.2541 97.9843 33.6682 99.966 33.6682C104.775 33.9519 108.453 29.9912 108.453 25.7465C108.453 21.7861 105.624 18.3926 101.945 17.8248C101.945 17.8248 94.5908 16.4107 86.1043 16.4107C39.7139 16.4107 2.09003 54.0345 2.09003 100.425C2.09003 122.773 10.8605 143.988 26.7013 159.832C42.5422 175.677 63.7594 184.444 86.1088 184.444C107.892 184.444 128.258 176.241 144.098 161.247L219.061 89.9613C222.172 86.5695 225.001 84.8703 229.81 84.8703L229.806 84.8666ZM229.806 148.515C222.169 148.515 218.773 146.817 216.229 146.817C211.138 146.817 206.894 151.059 206.894 156.153C206.894 160.113 209.722 163.79 213.117 164.923C216.794 166.057 223.302 166.902 229.526 166.902C266.3 166.902 296.57 136.917 296.57 99.858C296.57 63.0836 266.585 32.8137 229.526 32.8137C211.422 32.8137 193.881 40.1676 181.437 53.1799L114.393 128.426C106.755 136.064 96.8547 140.025 86.1047 140.025C64.041 140.025 45.9347 121.921 45.9347 99.8548C45.9347 77.7884 64.0383 59.6849 86.1047 59.6849C91.1957 59.6849 92.8935 60.5342 95.156 60.5342C99.1164 60.5342 103.078 57.1424 103.078 52.6125C103.078 48.6521 100.531 45.2586 96.8539 44.6908C94.0256 44.1256 89.7812 43.5572 86.3883 43.5572C55.2728 43.5572 30.0939 68.733 30.0939 99.8515C30.0939 130.97 55.2697 156.146 86.3883 156.146C111.848 156.146 125.991 139.737 128.253 137.475L194.165 67.8873C203.5 57.4217 216.513 51.4787 230.374 51.4787C256.964 51.4787 278.747 73.2617 278.747 99.8515C278.181 126.725 256.398 148.509 229.809 148.509L229.806 148.515ZM300.527 29.4205C281.575 10.4682 256.394 0 229.807 0C198.123 0 167.857 15.2754 148.9 41.0199C148.9 41.0199 98.2648 104.384 95.7178 107.496C93.1707 110.608 89.4939 112.305 85.8176 112.305C79.0287 112.305 73.3705 106.647 73.3705 99.8582C73.3705 93.0697 79.0291 87.4111 85.8176 87.4111C87.2316 87.4111 88.0801 87.4111 89.2094 87.4111C93.451 87.4111 97.131 83.7341 97.131 79.4894C97.131 76.0976 94.8685 71.0027 86.9465 71.0027C69.9726 71.0027 57.526 84.0154 57.526 99.5742C57.526 115.415 70.2545 128.146 86.0974 128.146C94.0191 128.146 101.657 124.754 107.031 118.81L165.589 50.0715C181.148 29.9863 204.626 18.3881 229.802 18.3881C251.585 18.3881 271.951 26.8748 287.51 42.15C302.786 57.4254 311.272 78.075 311.272 99.8584C311.272 144.835 274.782 181.328 229.802 181.328C217.074 181.328 212.828 179.066 209.717 179.066C204.342 179.066 200.096 183.308 200.096 188.401C200.096 192.362 202.359 195.474 206.036 197.172C209.148 198.586 221.596 200 229.514 200C284.675 200 329.652 155.023 329.652 99.8617C329.936 73.2716 319.468 48.3777 300.515 29.4252L300.527 29.4205Z" fill="white"/>
<path d="M441.966 98.443L389.068 78.9266C386.521 77.793 384.542 75.2496 384.542 72.4186C384.542 68.4582 387.653 65.3459 391.615 65.3459H449.039V44.4121H390.765C375.49 44.4121 362.758 56.8592 362.758 72.4195C362.758 84.2985 370.112 94.4832 380.58 98.4444L433.478 117.961C436.307 118.81 438.004 121.638 438.004 124.469C438.004 128.429 434.893 131.541 430.932 131.541H362.474V152.475H431.497C446.773 152.475 460.069 140.028 460.069 124.468C460.634 112.589 452.431 102.404 441.965 98.443H441.966ZM735.595 131.54C731.635 131.54 728.523 128.429 728.523 124.468C728.523 121.356 730.502 118.809 733.049 117.96L785.947 98.4434C796.413 94.483 803.77 84.2983 803.77 72.4186C803.77 57.1432 791.322 44.4111 775.762 44.4111H717.488V65.3449H774.913C778.873 65.3449 781.985 68.4565 781.985 72.4176C781.985 75.5291 780.006 78.0762 777.459 78.9256L724.561 98.442C714.095 102.402 706.174 112.587 706.174 124.467C706.174 139.742 719.187 152.474 734.746 152.474H803.769V131.54H735.595H735.595ZM547.478 108.909C547.478 125.317 537.578 133.804 522.583 133.804C507.308 133.804 497.408 125.317 497.688 108.909V44.4113H475.056V110.323C475.056 134.369 492.594 153.605 522.579 153.605C552.845 153.605 570.103 134.369 570.103 110.323V44.4113H547.471V108.909H547.478ZM642.811 42.9971C611.696 42.9971 587.085 67.892 587.085 98.4424C587.085 128.993 611.696 153.888 642.811 153.888C662.047 153.888 677.607 145.966 689.202 132.389L671.948 119.942C664.026 128.993 654.41 134.368 643.094 134.368C626.97 134.368 613.674 122.489 610.281 106.36H697.126C697.41 103.814 697.691 100.985 697.691 98.7225C697.408 67.8881 673.929 42.9961 642.814 42.9961L642.811 42.9971ZM610.563 88.2588C614.523 73.2676 627.537 62.5174 642.811 62.5174C658.086 62.5174 671.099 73.5508 675.06 88.2588H610.562H610.563Z" fill="white"/>
</g>
<defs>
<clipPath id="clip0_804_1440">
<rect width="805.86" height="200" fill="white"/>
</clipPath>
</defs>
<script xmlns=""/></svg>