<svg width="1066" height="187" viewBox="0 0 1066 187" fill="none" xmlns="http://www.w3.org/2000/svg">
<g opacity="0.4">
<path d="M212.293 25.4525C200.304 35.0059 188.81 47.653 182.137 61.4911C168.423 89.9337 176.025 116.075 181.903 133.042C189.907 156.145 206.117 167.809 225.435 176.328C252.98 188.475 287.604 189.293 319.043 181.174C330.125 178.312 347.332 172.362 351.088 166.81C355.153 160.799 355.792 149.174 347.057 144.068C338.538 139.089 337.712 142.891 312.337 148.525C294.677 152.447 275.394 153.128 252.232 143.13C237.625 136.824 227.741 127.148 224.364 113.923C214.679 75.9862 235.604 61.9157 239.686 59.3437L212.293 25.4525Z" fill="url(#paint0_linear_813_1187)"/>
<path d="M241.156 70.1176C230.252 68.6729 198.263 65.2829 164.795 59.345C113.005 50.1566 52.1171 37.4121 32.6773 36.052C-4.73373 33.4345 -10.9721 82.0357 18.8932 90.3486C35.8078 95.0568 82.3516 90.1122 93.6655 112.449C97.1118 119.252 106.227 144.906 116.554 176.674C120.603 189.128 153.527 187.169 147.405 160.635C143.91 145.482 135.95 104.553 135.95 104.553C135.95 104.553 230.389 114.568 238.074 115.233L241.156 70.1176Z" fill="url(#paint1_linear_813_1187)"/>
<path d="M290.887 45.1225C302.879 45.4409 323.746 48.521 333.144 54.8082L385.551 65.1363C386.048 36.0493 370.096 20.3974 352.221 11.3747C338.653 4.52611 319.619 -1.0509 291.053 0.168245C263.738 1.33399 235.019 7.31705 212.113 25.5699L239.489 59.5197C252.407 51.381 268.64 44.5319 290.887 45.1225Z" fill="url(#paint2_linear_813_1187)"/>
<path d="M332.309 54.2725C332.309 54.2725 335.069 56.0407 336.267 57.1355C341.975 62.3498 343.865 68.5801 326.549 71.445L340.246 113.796C371.409 105.446 385.159 87.0582 385.543 64.6079L332.309 54.2725Z" fill="url(#paint3_linear_813_1187)"/>
<path d="M327.068 71.372C311.717 73.9117 281.956 75.554 240.923 70.1176L237.841 115.233C304.475 120.997 327.908 117.066 340.765 113.62L327.068 71.372Z" fill="url(#paint4_linear_813_1187)"/>
<path d="M452.222 71.8503C452.222 73.1112 453.215 74.0811 454.406 74.0811H474.259V127.104L487.345 127.151V74.081H507.199C508.39 74.081 509.383 73.1111 509.383 71.8501V63.6605C509.383 62.3996 508.39 61.4297 507.199 61.4297H454.406C453.215 61.4297 452.222 62.3996 452.222 63.6605V71.8503Z" fill="white"/>
<path d="M498.783 102.918C498.783 116.885 510.497 127.748 524.99 127.748C539.582 127.748 551.295 116.885 551.295 102.918C551.295 88.8537 539.582 77.7965 524.99 77.7965C510.497 77.7965 498.783 88.8537 498.783 102.918ZM513.276 102.821C513.276 96.2251 518.339 90.7935 524.99 90.7935C531.74 90.7935 536.802 96.2251 536.802 102.821C536.802 109.416 531.74 114.751 524.99 114.751C518.339 114.751 513.276 109.416 513.276 102.821Z" fill="white"/>
<path d="M559.853 113.06C559.853 123.826 568.092 128.191 576.43 128.191C582.089 128.191 587.881 127.408 591.576 124.589C597.602 119.991 592.552 110.651 584.33 115.277C581.892 116.649 577.88 115.95 577.145 115.653C575.489 114.981 572.611 114.415 572.779 109.762V89.4237H584.911C594.217 89.4237 594.098 77.6876 584.911 77.6876H572.779V61.6237L559.853 61.5774V77.6876H553.5V89.4237H559.853V113.06Z" fill="white"/>
<path d="M596.481 102.724C596.481 117.951 608.095 127.748 620.603 127.748C627.055 127.748 633.784 125.032 636.067 121.346V127.812L648.061 127.766V83.9451C648.061 75.368 636.313 75.7858 636.313 83.4718C634.03 79.786 627.154 77.7965 620.702 77.7965C608.194 77.7965 596.481 87.3988 596.481 102.724ZM610.974 102.821C610.974 96.2251 616.036 90.7935 622.787 90.7935C629.537 90.7935 634.599 96.2251 634.599 102.821C634.599 109.416 629.537 114.848 622.787 114.848C616.036 114.848 610.974 109.416 610.974 102.821Z" fill="white"/>
<path d="M672.894 127.151V67.2312C672.894 59.6317 659.333 59.8782 659.333 67.2312V127.147L672.894 127.151Z" fill="white"/>
<path d="M684.634 60.6965C683.344 60.6965 682.45 61.6665 682.45 62.8304V124.893C682.45 126.154 683.344 127.124 684.634 127.124H728.534L728.58 113.739H697.34V101.046H721.833C723.124 101.046 724.017 99.9786 724.017 98.8147V90.2793C724.017 89.0184 723.124 88.0485 721.833 88.0485H697.34V74.0815H725.563C726.853 74.0815 727.846 73.1116 727.846 71.8507V62.9274C727.846 61.6664 726.853 60.6965 725.563 60.6965H684.634Z" fill="white"/>
<path d="M772.792 125.183C772.792 126.347 773.884 127.123 774.976 127.123H783.534C784.626 127.123 785.718 126.347 785.718 125.183V98.9948C785.718 87.4527 779.061 77.0227 766.255 77.0227C758.711 77.0227 751.432 79.2381 748.553 82.6328C748.553 75.6777 737.194 75.3756 737.194 82.0211V127.182L750.021 127.23V100.577C750.021 84.1366 772.792 86.7601 772.792 100.577V125.183Z" fill="white"/>
<path d="M877.617 76.6146C870.552 76.6146 864.774 80.8035 862.094 84.9742V81.8282C862.094 75.9728 851.33 75.3518 851.33 82.0353V126.987L863.979 127.149V104.234C863.979 97.334 868.61 89.7227 873.587 88.9135L878.716 88.0797C886.886 88.0797 885.574 76.6146 877.617 76.6146Z" fill="white"/>
<path d="M911.469 136.301C904.918 136.301 898.66 135.933 895.302 134.068C887.26 129.602 882.507 139.413 887.519 142.307C894.293 146.217 897.671 148.143 910.377 148.143C926.657 148.143 935.487 139.137 935.487 125.946V82.0213C935.487 76.2296 924.227 75.5598 924.227 81.2876V84.2943C921.844 80.6086 915.017 78.5295 908.465 78.5295C895.957 78.5295 884.641 88.0348 884.641 103.069C884.641 118.103 895.858 127.414 909.06 127.414C915.414 127.414 920.575 124.698 922.759 121.4V125.461C922.759 131.766 919.113 136.301 911.469 136.301ZM899.134 103.069C899.134 96.4732 904.196 91.3326 910.847 91.3326C917.597 91.3326 922.66 96.4732 922.66 103.069C922.66 109.761 917.597 114.805 910.847 114.805C904.196 114.805 899.134 109.761 899.134 103.069Z" fill="white"/>
<path d="M952.662 71.9014C956.89 71.9014 960.399 68.2933 960.399 64.0538C960.399 59.724 956.89 56.1158 952.662 56.1158C948.343 56.1158 944.834 59.724 944.834 64.0538C944.834 68.2933 948.343 71.9014 952.662 71.9014ZM957.16 127.124C958.239 127.124 959.049 126.222 959.049 125.14V84.446C959.049 75.8583 946.094 75.8604 946.094 84.446V125.14C946.094 126.222 946.994 127.124 948.073 127.124H957.16Z" fill="white"/>
<path d="M992.728 76.963C977.545 76.963 966.613 88.6107 966.613 103.07C966.613 117.529 977.342 128.674 992.93 128.674C1003.76 128.674 1010.17 125.476 1014.22 120.255C1016.69 115.978 1010.89 110.753 1005.71 113.743C1001.12 116.848 997.991 116.424 993.234 116.424C987.464 116.424 982.403 112.508 981.695 106.383H1014.04C1016.06 106.383 1016.57 105.279 1016.57 104.074V101.363C1016.57 88.8115 1008.32 76.963 992.728 76.963ZM1003.66 97.3464H981.998C983.415 91.9242 987.869 88.6106 992.829 88.6106C997.587 88.6106 1002.34 91.4221 1003.66 97.3464Z" fill="white"/>
<path d="M1042.95 76.585C1029.65 76.585 1021.41 83.6389 1021.41 92.6075C1021.41 100.568 1026.87 105.506 1035.01 107.118L1043.26 108.831C1048 109.738 1050.47 110.746 1050.47 113.165C1050.47 115.281 1048.2 117.296 1043.57 117.296C1038.62 117.296 1033.49 116.376 1030.29 113.655C1023.21 109.979 1016.92 117.744 1023.99 123.04C1028.11 125.862 1034.6 128.482 1043.05 128.482C1056.76 128.482 1065.72 121.327 1065.72 111.855C1065.72 102.684 1058.71 98.6537 1050.16 97.0414L1042.23 95.5298C1038 94.7236 1036.45 93.4136 1036.45 91.499C1036.45 89.4836 1039.03 87.8712 1042.95 87.8712C1047.17 87.8712 1050.74 88.3036 1053.83 90.319C1060.03 93.9007 1066.39 86.2614 1060.62 81.4431C1057.53 78.7223 1052.94 76.585 1042.95 76.585Z" fill="white"/>
<path d="M819.578 76.963C804.394 76.963 793.462 88.6107 793.462 103.07C793.462 117.529 804.192 128.674 819.78 128.674C830.611 128.674 837.022 125.476 841.071 120.255C843.54 115.978 837.735 110.753 832.556 113.743C827.97 116.848 824.841 116.424 820.084 116.424C814.314 116.424 809.253 112.508 808.544 106.383H840.885C842.91 106.383 843.416 105.279 843.416 104.074V101.363C843.416 88.8115 835.166 76.963 819.578 76.963ZM830.51 97.3464H808.848C810.265 91.9242 814.719 88.6106 819.679 88.6106C824.436 88.6106 829.194 91.4221 830.51 97.3464Z" fill="white"/>
</g>
<defs>
<linearGradient id="paint0_linear_813_1187" x1="217.422" y1="56.5899" x2="317.667" y2="165.466" gradientUnits="userSpaceOnUse">
<stop stop-color="#EFEFEF"/>
<stop offset="1" stop-color="#D5D5D5"/>
</linearGradient>
<linearGradient id="paint1_linear_813_1187" x1="135.126" y1="172.881" x2="135.95" y2="104.553" gradientUnits="userSpaceOnUse">
<stop stop-color="#E4E4E4"/>
<stop offset="1" stop-color="#F1F1F1"/>
</linearGradient>
<linearGradient id="paint2_linear_813_1187" x1="220.089" y1="39.5383" x2="330.76" y2="41.6623" gradientUnits="userSpaceOnUse">
<stop stop-color="#EFEFEF"/>
<stop offset="1" stop-color="white"/>
</linearGradient>
<linearGradient id="paint3_linear_813_1187" x1="336.819" y1="81.1887" x2="347.019" y2="61.0609" gradientUnits="userSpaceOnUse">
<stop stop-color="#E4E4E4"/>
<stop offset="0.854207" stop-color="white"/>
<stop offset="1" stop-color="white"/>
</linearGradient>
<linearGradient id="paint4_linear_813_1187" x1="325.462" y1="92.4092" x2="240.49" y2="96.4341" gradientUnits="userSpaceOnUse">
<stop stop-color="#E4E4E4"/>
<stop offset="1" stop-color="#F1F1F1"/>
</linearGradient>
</defs>
<script xmlns=""/></svg>